# xmcd CD database file
# Copyright (C) 1996 Ti Kan
#
# Track frame offsets:
#  150
#  20550
#  35507
#  60392
#  77510
#  99845
#  120620
#  136665
#  152602
#  169962
#  184772
#
# Disc length: 2685 seconds
#
# Revision: 1
# Processed by: cddbd v1.4b41PL1 Copyright (c) Steve Scherf et al.
# Submitted via: CDWizzard Release:4.13
#
DISCID=7d0a7b0b
DTITLE=Urban Shakedancers - Let 'er Dig
DYEAR=1900
DGENRE=
TTITLE0=Nervous Wreck
TTITLE1=Lovely Child
TTITLE2=The Light of Things
TTITLE3=Take Me Back
TTITLE4=Down in the Hole
TTITLE5=Jerry the Junker
TTITLE6=Bad Boy
TTITLE7=High Brow Shuffle
TTITLE8=Complicated Connie
TTITLE9=Natural Born Woman
TTITLE10=See Ya' Later
EXTD=
EXTT0=
EXTT1=
EXTT2=
EXTT3=
EXTT4=
EXTT5=
EXTT6=
EXTT7=
EXTT8=
EXTT9=
EXTT10=
PLAYORDER=
